<?xml version="1.0" encoding="utf-8"?>
<!-- Generator: Adobe Illustrator 27.1.1, SVG Export Plug-In . SVG Version: 6.00 Build 0)  -->
<svg version="1.1" id="Layer_1" xmlns="http://www.w3.org/2000/svg" xmlns:xlink="http://www.w3.org/1999/xlink" x="0px" y="0px"
	 viewBox="0 0 288 288" style="enable-background:new 0 0 288 288;" xml:space="preserve">
<style type="text/css">
	.st0{fill:#FF595A;}
	.st1{fill:#FFFFFF;}
	.st2{fill:#2F76FF;}
	.st3{fill:#00AAFF;}
	.st4{fill:#5E1DE4;}
	.st5{fill:#A825DB;}
	.st6{fill:#51F2B8;}
	.st7{fill:#403FF6;}

	.st0, .st1, .st2, .st3, .st4, .st5, .st6, .st7{
		opacity: 0;
		transition: all 500ms;
		/*transform-origin: center; */
		animation: sparkFooterObj1 6s 200ms linear infinite;
	}
	.st0, .st3, .st6{
		animation-delay: 0.5s;
	}
	.st1, .st4,.st7{
		animation-delay: 1.5s;
	}
	.st2,.st5{
		animation-delay: 2.5s;
	}
	@keyframes sparkFooterObj1 {
		0%, 100% {
			opacity: 0;
		}
		20%, 70% {
			opacity: 1;
		}
	}
</style>
<g>
	<path id="Path_24764" class="st0" d="M123.4,126.7h-0.7v-3.2h-3.2v-0.7h3.9L123.4,126.7z"/>
	<path id="Path_24771" class="st1" d="M71.3,157.9h-0.7V154h3.9v0.7h-3.2V157.9z"/>
	<path id="Path_24772" class="st2" d="M154.4,178.7h-0.7v-3.9h3.9v0.7h-3.2V178.7z"/>
	<path id="Path_24774" class="st2" d="M144.3,102.8h-3.9v-0.7h3.2v-3.2h0.7L144.3,102.8z"/>
	<path id="Path_24775" class="st3" d="M154.6,71.8h-3.9V71h3.2v-3.2h0.7L154.6,71.8z"/>
	<path id="Path_24776" class="st1" d="M175.5,176h-3.9v-0.7h3.2v-3.2h0.7L175.5,176z"/>
	<path id="Path_24777" class="st2" d="M164.9,144.4H161v-0.7h3.2v-3.2h0.7L164.9,144.4z"/>
	<path id="Path_24778" class="st2" d="M112.9,113.2H109v-0.7h3.2v-3.2h0.7L112.9,113.2z"/>
	<path id="Path_24782" class="st1" d="M168.2,123.5h-3.9v-3.9h0.7v3.2h3.2L168.2,123.5z"/>
	<path id="Path_24786" class="st4" d="M105.6,144.5h-3.9v-3.9h0.7v3.2h3.2V144.5z"/>
	
		<rect id="Rectangle_21324" x="81" y="119.4" transform="matrix(0.7071 -0.7071 0.7071 0.7071 -63.3108 93.6253)" class="st3" width="0.7" height="7.7"/>
	
		<rect id="Rectangle_21327_00000131343866740192492090000005849437257191143829_" x="205.7" y="161" transform="matrix(0.7071 -0.7071 0.7071 0.7071 -56.1753 194.0262)" class="st5" width="0.7" height="7.7"/>
	
		<rect id="Rectangle_21328" x="150.3" y="91.6" transform="matrix(0.7071 -0.7071 0.7071 0.7071 -19.8966 135.9701)" class="st0" width="7.7" height="0.7"/>
	
		<rect id="Rectangle_21329" x="129.5" y="112.5" transform="matrix(0.7071 -0.7071 0.7071 0.7071 -40.7459 127.3342)" class="st4" width="7.7" height="0.7"/>
	<path id="Path_24790" class="st6" d="M136.3,193.5l-0.5-0.5l-2.5,2.5l-2.5-2.5l-0.5,0.5l2.5,2.5l-2.5,2.5l0.5,0.5l2.5-2.5l2.5,2.5
		l0.5-0.5l-2.5-2.5L136.3,193.5z"/>
	<polygon class="st1" points="146.7,42.5 144.3,40.1 146.7,37.6 146.2,37.1 143.7,39.6 141.3,37.1 140.7,37.6 143.2,40.1 
		140.7,42.5 141.3,43.1 143.7,40.6 146.2,43.1 	"/>
	
		<rect id="Rectangle_21333" x="129.5" y="216.4" transform="matrix(0.7071 -0.7071 0.7071 0.7071 -114.2411 157.7738)" class="st4" width="7.7" height="0.7"/>
	<path id="Path_24793" class="st2" d="M198.7,152l-0.5-0.5l-2.5,2.5l-2.5-2.5l-0.5,0.5l2.5,2.5l-2.5,2.5l0.5,0.5l2.5-2.5l2.5,2.5
		l0.5-0.5l-2.5-2.5L198.7,152z"/>
	<path id="Path_24794" class="st3" d="M157,131l-0.5-0.5l-2.5,2.5l-2.5-2.5l-0.5,0.5l2.5,2.5l-2.5,2.5l0.5,0.5l2.5-2.5l2.5,2.5
		l0.5-0.5l-2.5-2.5L157,131z"/>
	<path id="Path_24795" class="st4" d="M229.9,141.6l-0.5-0.5l-2.5,2.5l-2.5-2.5l-0.5,0.5l2.5,2.5l-2.5,2.5l0.5,0.5l2.5-2.5l2.5,2.5
		l0.5-0.5l-2.5-2.5L229.9,141.6z"/>
	
		<rect id="Rectangle_21336" x="143.4" y="223.3" transform="matrix(0.7071 -0.7071 0.7071 0.7071 -118.5516 168.1803)" class="st5" width="0.7" height="7.7"/>
	
		<rect id="Rectangle_21337" x="122.6" y="77.8" transform="matrix(0.7071 -0.7071 0.7071 0.7071 -21.7274 110.8499)" class="st2" width="0.7" height="7.7"/>
	
		<rect id="Rectangle_21338" x="77.5" y="164.5" transform="matrix(0.7071 -0.7071 0.7071 0.7071 -92.7153 105.805)" class="st2" width="7.7" height="0.7"/>
	<path id="Path_24797" class="st2" d="M143.6,85.5c-2.1,0-3.9-1.7-3.9-3.9c0-2.1,1.7-3.9,3.9-3.9v0.7c-1.7,0-3.2,1.4-3.2,3.2
		s1.4,3.2,3.2,3.2c0,0,0,0,0,0V85.5z"/>
	<path id="Path_24798" class="st6" d="M137.2,95.2h-0.7c0-1.7-1.4-3.2-3.2-3.2s-3.2,1.4-3.2,3.2l0,0h-0.7c0-2.1,1.7-3.9,3.9-3.9
		S137.2,93.1,137.2,95.2"/>
	<path id="Path_24800" class="st4" d="M164.5,106c-2.1,0-3.9-1.7-3.9-3.9s1.7-3.9,3.9-3.9v0.7c-1.7,0-3.2,1.4-3.2,3.2
		s1.4,3.2,3.2,3.2V106z"/>
	<path id="Path_24807" class="st2" d="M112.5,137.5c-2.1,0-3.9-1.7-3.9-3.9h0.7c0,1.7,1.4,3.2,3.2,3.2c1.7,0,3.2-1.4,3.2-3.2h0.7
		C116.4,135.8,114.7,137.5,112.5,137.5"/>
	<path id="Path_24808" class="st5" d="M81.4,147.8c-2.1,0-3.9-1.7-3.9-3.9c0-2.1,1.7-3.9,3.9-3.9l0,0v0.7c-1.7,0-3.2,1.4-3.2,3.2
		s1.4,3.2,3.2,3.2V147.8z"/>
	<path id="Path_24810" class="st2" d="M60.6,147.6c-2.1,0-3.9-1.7-3.9-3.9h0.7c0,1.7,1.4,3.2,3.2,3.2s3.2-1.4,3.2-3.2h0.7
		C64.5,145.9,62.7,147.6,60.6,147.6"/>
	<path class="st3" d="M160.6,206.4h0.7c0-1.7,1.4-3.2,3.2-3.2l0-0.7C162.4,202.5,160.6,204.3,160.6,206.4z"/>
	<path class="st0" d="M122.9,202.5v0.7c1.7,0,3.2,1.4,3.2,3.2l0.7,0C126.8,204.3,125.1,202.5,122.9,202.5z"/>
	<path id="Path_24815" class="st2" d="M95.6,154.4h-0.7c0-1.7-1.4-3.2-3.2-3.2v-0.7C93.9,150.5,95.6,152.3,95.6,154.4"/>
	<path id="Path_24818" class="st0" d="M139.8,247.5c0-2.1,1.7-3.9,3.9-3.9s3.9,1.7,3.9,3.9h-0.7c0-1.7-1.4-3.2-3.2-3.2
		c-1.7,0-3.2,1.4-3.2,3.2l0,0H139.8z"/>
	<path id="Path_24825" class="st2" d="M154.1,199.9c-2.1,0-3.9-1.7-3.9-3.9h0.7c0,1.7,1.4,3.2,3.2,3.2L154.1,199.9z"/>
	<path id="Path_24828" class="st5" d="M137.2,175h-0.7c0-1.7-1.4-3.2-3.2-3.2s-3.2,1.4-3.2,3.2h-0.7c0-2.1,1.7-3.9,3.9-3.9
		S137.2,172.9,137.2,175"/>
	<path id="Path_24829" class="st7" d="M122.9,181.7v0.7c-1.7,0-3.2,1.4-3.2,3.2s1.4,3.2,3.2,3.2v0.7c-2.1,0-3.9-1.7-3.9-3.9
		S120.7,181.7,122.9,181.7"/>
	<path id="Path_24830" class="st6" d="M102.2,160.9v0.7c-1.7,0-3.2,1.4-3.2,3.2s1.4,3.2,3.2,3.2v0.7c-2.1,0-3.9-1.7-3.9-3.9
		S100,160.9,102.2,160.9"/>
	<path id="Path_24832" class="st7" d="M185.3,168.7c-2.1,0-3.9-1.7-3.9-3.9h0.7c0,1.7,1.4,3.2,3.2,3.2c1.7,0,3.2-1.4,3.2-3.2h0.7
		C189.2,167,187.5,168.7,185.3,168.7"/>
	<path id="Path_24833" class="st2" d="M178.8,154.4h-0.7c0-1.7-1.4-3.2-3.2-3.2c-1.7,0-3.2,1.4-3.2,3.2l0,0H171
		c0-2.1,1.7-3.9,3.9-3.9C177.1,150.5,178.8,152.3,178.8,154.4"/>
	<path id="Path_24834" class="st2" d="M185.3,147.8c-2.1,0-3.9-1.7-3.9-3.9h0.7c0,1.7,1.4,3.2,3.2,3.2c1.7,0,3.2-1.4,3.2-3.2h0.7
		C189.2,146,187.5,147.8,185.3,147.8"/>
	<path id="Path_24836" class="st7" d="M213.3,133.6h-0.7c0-2.1,1.7-3.9,3.9-3.9v0.7C214.8,130.5,213.3,131.9,213.3,133.6"/>
	<path id="Path_24837" class="st0" d="M195.7,137.5c-2.1,0-3.9-1.7-3.9-3.9c0-2.1,1.7-3.9,3.9-3.9v0.7c-1.7,0-3.2,1.4-3.2,3.2
		s1.4,3.2,3.2,3.2V137.5z"/>
	<path id="Path_24838" class="st5" d="M174.9,137.5v-0.7c1.7,0,3.2-1.4,3.2-3.2c0-1.7-1.4-3.2-3.2-3.2l0,0v-0.7
		c2.1,0,3.9,1.7,3.9,3.9S177.1,137.5,174.9,137.5"/>
	<path id="Path_24842" class="st4" d="M216.5,150.5v0.7c-1.7,0-3.2,1.4-3.2,3.2s1.4,3.2,3.2,3.2v0.7c-2.1,0-3.9-1.7-3.9-3.9
		S214.3,150.5,216.5,150.5"/>
	<path id="Path_24844" class="st6" d="M102.2,127.1c-2.1,0-3.9-1.7-3.9-3.9c0-2.1,1.7-3.9,3.9-3.9c2.1,0,3.9,1.7,3.9,3.9
		C106,125.4,104.3,127.1,102.2,127.1 M102.2,120.1c-1.7,0-3.2,1.4-3.2,3.2s1.4,3.2,3.2,3.2c1.7,0,3.2-1.4,3.2-3.2
		C105.3,121.5,103.9,120.1,102.2,120.1"/>
	<path id="Path_24844_00000130639776447997903090000014836255535337797559_" class="st6" d="M164.5,85.6c-2.1,0-3.9-1.7-3.9-3.9
		c0-2.1,1.7-3.9,3.9-3.9c2.1,0,3.9,1.7,3.9,3.9C168.4,83.8,166.7,85.6,164.5,85.6 M164.5,78.5c-1.7,0-3.2,1.4-3.2,3.2
		c0,1.7,1.4,3.2,3.2,3.2c1.7,0,3.2-1.4,3.2-3.2C167.7,79.9,166.3,78.5,164.5,78.5"/>
	<path id="Path_24845" class="st5" d="M88.6,133.6h-0.7c0-2.1,1.7-3.9,3.9-3.9v0.7C90,130.5,88.6,131.9,88.6,133.6"/>
	<path id="Path_24848" class="st4" d="M133.3,137.5c-2.1,0-3.9-1.7-3.9-3.9c0-2.1,1.7-3.9,3.9-3.9c2.1,0,3.9,1.7,3.9,3.9
		C137.2,135.8,135.5,137.5,133.3,137.5 M133.3,130.5c-1.7,0-3.2,1.4-3.2,3.2s1.4,3.2,3.2,3.2c1.7,0,3.2-1.4,3.2-3.2
		C136.5,131.9,135.1,130.5,133.3,130.5"/>
	<path id="Path_24848_00000060729509751350154580000010798698015667943302_" class="st4" d="M164.5,189.5c-2.1,0-3.9-1.7-3.9-3.9
		c0-2.1,1.7-3.9,3.9-3.9c2.1,0,3.9,1.7,3.9,3.9C168.4,187.8,166.7,189.5,164.5,189.5 M164.5,182.4c-1.7,0-3.2,1.4-3.2,3.2
		c0,1.7,1.4,3.2,3.2,3.2c1.7,0,3.2-1.4,3.2-3.2C167.7,183.9,166.3,182.5,164.5,182.4"/>
	<path id="Path_24849" class="st2" d="M133.3,158.2c-2.1,0-3.9-1.7-3.9-3.9h0.7c0,1.7,1.4,3.2,3.2,3.2s3.2-1.4,3.2-3.2h0.7
		C137.2,156.4,135.5,158.2,133.3,158.2"/>
	<path id="Path_24850" class="st1" d="M39.8,147.9c-2.1,0-3.9-1.7-3.9-3.9s1.7-3.9,3.9-3.9s3.9,1.7,3.9,3.9l0,0
		C43.7,146.2,41.9,147.9,39.8,147.9 M39.8,140.9c-1.7,0-3.2,1.4-3.2,3.2s1.4,3.2,3.2,3.2c1.7,0,3.2-1.4,3.2-3.2
		C42.9,142.3,41.5,140.9,39.8,140.9"/>
	<path id="Path_24855_00000045589002547595032680000011772962115699172025_" class="st0" d="M247.7,145.6c-0.9,0-1.6-0.7-1.6-1.6
		c0-0.9,0.7-1.6,1.6-1.6c0.9,0,1.6,0.7,1.6,1.6l0,0C249.3,144.9,248.6,145.6,247.7,145.6 M247.7,143.2c-0.5,0-0.9,0.4-0.9,0.9
		c0,0.5,0.4,0.9,0.9,0.9c0.5,0,0.9-0.4,0.9-0.9c0,0,0,0,0,0C248.5,143.6,248.2,143.2,247.7,143.2"/>
	<path id="Path_24856" class="st0" d="M122.9,145.7c-0.9,0-1.6-0.7-1.6-1.6c0-0.9,0.7-1.6,1.6-1.6c0.9,0,1.6,0.7,1.6,1.6
		c0,0,0,0,0,0C124.5,145,123.8,145.7,122.9,145.7 M122.9,143.3c-0.5,0-0.9,0.4-0.9,0.9c0,0.5,0.4,0.9,0.9,0.9c0.5,0,0.9-0.4,0.9-0.9
		c0,0,0,0,0,0C123.7,143.6,123.4,143.3,122.9,143.3"/>
	<path id="Path_24856_00000060021665889135612550000009424251453978451884_" class="st1" d="M174.1,96.8c-0.9,0-1.6-0.7-1.6-1.6
		c0-0.9,0.7-1.6,1.6-1.6c0.9,0,1.6,0.7,1.6,1.6c0,0,0,0,0,0C175.7,96.1,174.9,96.8,174.1,96.8 M174.1,94.4c-0.5,0-0.9,0.4-0.9,0.9
		c0,0.5,0.4,0.9,0.9,0.9c0.5,0,0.9-0.4,0.9-0.9c0,0,0,0,0,0C174.9,94.8,174.5,94.4,174.1,94.4"/>
	<path id="Path_24858" class="st5" d="M122.9,163.7c-0.7,0-1.2,0.6-1.2,1.2c0,0.7,0.6,1.2,1.2,1.2c0.7,0,1.2-0.6,1.2-1.2
		c0,0,0,0,0,0C124.2,164.3,123.6,163.7,122.9,163.7"/>
	<path id="Path_24860" class="st0" d="M19,142.8c-0.7,0-1.2,0.6-1.2,1.2s0.6,1.2,1.2,1.2c0.7,0,1.2-0.6,1.2-1.2
		C20.2,143.3,19.7,142.8,19,142.8"/>
	<path id="Path_24860_00000088821381760578639310000007688215909569810620_" class="st6" d="M268.5,142.8c-0.7,0-1.2,0.6-1.2,1.2
		s0.6,1.2,1.2,1.2c0.7,0,1.2-0.6,1.2-1.2C269.7,143.3,269.2,142.8,268.5,142.8"/>
	<path id="Path_24860_00000130637461156929636810000008777712750626694823_" class="st5" d="M143.8,267.5c-0.7,0-1.2,0.6-1.2,1.2
		s0.6,1.2,1.2,1.2c0.7,0,1.2-0.6,1.2-1.2C145,268,144.5,267.5,143.8,267.5"/>
	<path id="Path_24861" class="st3" d="M133.3,70c-0.7,0-1.2,0.6-1.2,1.2c0,0.7,0.6,1.2,1.2,1.2c0.7,0,1.2-0.6,1.2-1.2c0,0,0,0,0,0
		C134.6,70.6,134,70,133.3,70"/>
	<path id="Path_24861_00000006665694221498533200000013386470523919643807_" class="st3" d="M143.8,18c-0.7,0-1.2,0.6-1.2,1.2
		c0,0.7,0.6,1.2,1.2,1.2c0.7,0,1.2-0.6,1.2-1.2c0,0,0,0,0,0C145,18.5,144.5,18,143.8,18"/>
	<path id="Path_24862" class="st6" d="M143.7,187.2c-0.9,0-1.6-0.7-1.6-1.6c0-0.9,0.7-1.6,1.6-1.6c0.9,0,1.6,0.7,1.6,1.6l0,0
		C145.3,186.5,144.6,187.2,143.7,187.2 M143.7,184.8c-0.5,0-0.9,0.4-0.9,0.9c0,0.5,0.4,0.9,0.9,0.9c0.5,0,0.9-0.4,0.9-0.9
		c0,0,0,0,0,0C144.6,185.1,144.2,184.8,143.7,184.8"/>
	<path id="Path_24863" class="st5" d="M154.1,218.4c-0.9,0-1.6-0.7-1.6-1.6c0-0.9,0.7-1.6,1.6-1.6s1.6,0.7,1.6,1.6l0,0
		C155.6,217.7,154.9,218.4,154.1,218.4 M154.1,216c-0.5,0-0.9,0.4-0.9,0.9c0,0.5,0.4,0.9,0.9,0.9c0.5,0,0.9-0.4,0.9-0.9
		C154.9,216.4,154.5,216,154.1,216"/>
	<path id="Path_24865" class="st2" d="M143.7,126.9c-2.1,0-3.9-1.7-3.9-3.9h0.7c0,1.7,1.4,3.2,3.2,3.2s3.2-1.4,3.2-3.2h0.7
		C147.6,125.1,145.9,126.9,143.7,126.9"/>
	<path id="Path_24866" class="st5" d="M150,114.7h-0.7c0-2.1,1.7-3.9,3.9-3.9v0.7C151.4,111.5,150,113,150,114.7"/>
	<path class="st5" d="M202.9,123.2h-0.7c0,2.1,1.7,3.9,3.9,3.9l0-0.7C204.3,126.4,202.9,125,202.9,123.2z"/>
	<path id="Path_24869" class="st2" d="M104.4,108.9v-0.7c1.7,0,3.2-1.4,3.2-3.2c0-1.7-1.4-3.2-3.2-3.2v-0.7c2.1,0,3.9,1.7,3.9,3.9
		C108.3,107.1,106.5,108.9,104.4,108.9"/>
	<rect id="Rectangle_21345" x="150.7" y="154" class="st7" width="6.8" height="0.8"/>
	<rect id="Rectangle_21351" x="119.5" y="102.1" class="st5" width="6.8" height="0.8"/>
	<rect id="Rectangle_21353" x="184.9" y="119.8" class="st2" width="0.8" height="6.8"/>
	<rect id="Rectangle_21356" x="143.4" y="203" class="st2" width="0.8" height="6.8"/>
	<rect id="Rectangle_21358" x="143.4" y="161.4" class="st4" width="0.8" height="6.8"/>
	<rect id="Rectangle_21359" x="112.2" y="151" class="st4" width="0.8" height="6.8"/>
	<path id="Path_24872" class="st2" d="M112.5,172.5c0.6,1.2,1.6,2.1,2.8,2.8c-1.2,0.6-2.1,1.6-2.8,2.8c-0.6-1.2-1.6-2.1-2.8-2.8
		C111,174.6,111.9,173.6,112.5,172.5 M112.5,169.5c0,3.2-2.6,5.7-5.7,5.7c3.2,0,5.7,2.6,5.7,5.7c0,0,0,0,0,0c0-3.2,2.6-5.7,5.7-5.7
		c0,0,0,0,0,0C115.1,175.2,112.5,172.6,112.5,169.5"/>
	<path id="Path_24873" class="st6" d="M71,130.9c0.6,1.2,1.6,2.1,2.8,2.8c-1.2,0.6-2.1,1.6-2.8,2.8c-0.6-1.2-1.6-2.1-2.8-2.8
		C69.4,133,70.4,132,71,130.9 M71,127.9c0,3.2-2.6,5.7-5.7,5.7c3.2,0,5.7,2.6,5.7,5.7c0,0,0,0,0,0c0-3.2,2.6-5.7,5.7-5.7
		c0,0,0,0,0,0C73.5,133.6,71,131.1,71,127.9"/>
	<path id="Path_24874" class="st6" d="M143.7,141.4c0.6,1.2,1.6,2.1,2.8,2.8c-1.2,0.6-2.1,1.6-2.8,2.8c-0.6-1.2-1.6-2.1-2.8-2.8
		C142.2,143.5,143.1,142.5,143.7,141.4 M143.7,138.4c0,3.2-2.6,5.7-5.7,5.7c3.2,0,5.7,2.6,5.7,5.7c0,0,0,0,0,0
		c0-3.2,2.6-5.7,5.7-5.7c0,0,0,0,0,0C146.3,144.1,143.7,141.5,143.7,138.4"/>
	<path id="Path_24875" class="st0" d="M164.5,162.1c0.6,1.2,1.6,2.1,2.8,2.8c-1.2,0.6-2.1,1.6-2.8,2.8c-0.6-1.2-1.6-2.1-2.8-2.8
		C163,164.2,163.9,163.2,164.5,162.1 M164.5,159.1c0,3.2-2.6,5.7-5.7,5.7c3.2,0,5.7,2.6,5.7,5.7c0,0,0,0,0,0c0-3.2,2.6-5.7,5.7-5.7
		C167.1,164.8,164.5,162.3,164.5,159.1"/>
	<path id="Path_24878" class="st1" d="M206,141.4c0.6,1.2,1.6,2.1,2.8,2.8c-1.2,0.6-2.1,1.6-2.8,2.8c-0.6-1.2-1.6-2.1-2.8-2.8
		C204.4,143.5,205.4,142.5,206,141.4 M206,138.4c0,3.2-2.6,5.7-5.7,5.7c3.2,0,5.7,2.6,5.7,5.7c0,0,0,0,0,0c0-3.2,2.6-5.7,5.7-5.7
		c0,0,0,0,0,0C208.6,144.1,206,141.5,206,138.4"/>
	<path id="Path_24879" class="st3" d="M174.9,110.1c0.6,1.2,1.6,2.1,2.8,2.8c-1.2,0.6-2.1,1.6-2.8,2.8c-0.6-1.2-1.6-2.1-2.8-2.8
		C173.3,112.2,174.3,111.3,174.9,110.1 M174.8,107c0,3.2-2.6,5.7-5.7,5.7c3.2,0,5.7,2.6,5.7,5.7c0,0,0,0,0,0c0-3.2,2.6-5.7,5.7-5.7
		c0,0,0,0,0,0C177.4,112.8,174.8,110.2,174.8,107"/>
	<path id="Path_24879_00000018225917274615432560000014670623390427532422_" class="st5" d="M143.7,58.2c0.6,1.2,1.6,2.1,2.8,2.8
		c-1.2,0.6-2.1,1.6-2.8,2.8c-0.6-1.2-1.6-2.1-2.8-2.8C142.2,60.3,143.1,59.3,143.7,58.2 M143.7,55.2c0,3.2-2.6,5.7-5.7,5.7
		c3.2,0,5.7,2.6,5.7,5.7c0,0,0,0,0,0c0-3.2,2.6-5.7,5.7-5.7c0,0,0,0,0,0C146.3,60.9,143.7,58.4,143.7,55.2"/>
</g>
</svg>
